<svg id="visual" viewBox="0 0 960 100" width="960" height="100" xmlns="http://www.w3.org/2000/svg" xmlns:xlink="http://www.w3.org/1999/xlink" version="1.1"><rect x="0" y="0" width="960" height="100" fill="#245654"></rect><path d="M0 81L10.7 82.3C21.3 83.7 42.7 86.3 64 85.3C85.3 84.3 106.7 79.7 128 77.2C149.3 74.7 170.7 74.3 192 73C213.3 71.7 234.7 69.3 256 71.3C277.3 73.3 298.7 79.7 320 83.3C341.3 87 362.7 88 384 86.5C405.3 85 426.7 81 448 78.3C469.3 75.7 490.7 74.3 512 73.2C533.3 72 554.7 71 576 73.3C597.3 75.7 618.7 81.3 640 84.7C661.3 88 682.7 89 704 87.8C725.3 86.7 746.7 83.3 768 80.2C789.3 77 810.7 74 832 75.3C853.3 76.7 874.7 82.3 896 83.3C917.3 84.3 938.7 80.7 949.3 78.8L960 77L960 101L949.3 101C938.7 101 917.3 101 896 101C874.7 101 853.3 101 832 101C810.7 101 789.3 101 768 101C746.7 101 725.3 101 704 101C682.7 101 661.3 101 640 101C618.7 101 597.3 101 576 101C554.7 101 533.3 101 512 101C490.7 101 469.3 101 448 101C426.7 101 405.3 101 384 101C362.7 101 341.3 101 320 101C298.7 101 277.3 101 256 101C234.7 101 213.3 101 192 101C170.7 101 149.3 101 128 101C106.7 101 85.3 101 64 101C42.7 101 21.3 101 10.7 101L0 101Z" fill="#0b0c10" stroke-linecap="round" stroke-linejoin="miter"></path></svg>