<svg id="visual" viewBox="0 0 960 100" width="960" height="100" xmlns="http://www.w3.org/2000/svg" xmlns:xlink="http://www.w3.org/1999/xlink" version="1.1"><rect x="0" y="0" width="960" height="100" fill="#1F2833"></rect><path d="M0 48L10.7 45.5C21.3 43 42.7 38 64 43.7C85.3 49.3 106.7 65.7 128 71.8C149.3 78 170.7 74 192 66.5C213.3 59 234.7 48 256 47.2C277.3 46.3 298.7 55.7 320 55.7C341.3 55.7 362.7 46.3 384 39.8C405.3 33.3 426.7 29.7 448 37C469.3 44.3 490.7 62.7 512 63.8C533.3 65 554.7 49 576 40.3C597.3 31.7 618.7 30.3 640 34.5C661.3 38.7 682.7 48.3 704 50.3C725.3 52.3 746.7 46.7 768 46C789.3 45.3 810.7 49.7 832 46.7C853.3 43.7 874.7 33.3 896 31.2C917.3 29 938.7 35 949.3 38L960 41L960 101L949.3 101C938.7 101 917.3 101 896 101C874.7 101 853.3 101 832 101C810.7 101 789.3 101 768 101C746.7 101 725.3 101 704 101C682.7 101 661.3 101 640 101C618.7 101 597.3 101 576 101C554.7 101 533.3 101 512 101C490.7 101 469.3 101 448 101C426.7 101 405.3 101 384 101C362.7 101 341.3 101 320 101C298.7 101 277.3 101 256 101C234.7 101 213.3 101 192 101C170.7 101 149.3 101 128 101C106.7 101 85.3 101 64 101C42.7 101 21.3 101 10.7 101L0 101Z" fill="#245654" stroke-linecap="round" stroke-linejoin="miter"></path></svg>